<svg width="213" height="30" viewBox="0 0 213 30" fill="none" xmlns="http://www.w3.org/2000/svg" aria-hidden="true">
<path d="M22.2922 13.6814H22.182C21.7409 14.5064 20.1961 14.781 19.2576 14.9444C13.3565 15.9904 6.02068 15.9904 6.02068 21.4844C6.02068 24.9453 9.05395 27.0883 12.3642 27.0883C17.7154 27.0883 22.2922 23.7372 22.2922 18.187V13.6814ZM3.75917 9.50534C4.14506 2.85814 8.72319 0 15.2885 0C20.3063 0 25.7678 1.48398 25.7678 9.12094V23.6744C25.7678 25.0486 26.4293 25.9442 27.8088 25.9442C28.1947 25.9442 28.595 25.8867 28.9481 25.8867V29.3345C28.1094 29.3345 27.587 29.3881 26.6498 29.3881C23.1191 29.3881 22.5678 26.7993 22.5678 24.6825H22.4576C19.9756 28.363 17.6038 30 12.0872 30C6.79245 30 2.54639 27.419 2.54639 21.7041C2.54639 13.7925 10.3232 13.4618 17.8243 12.5831C20.6935 12.3086 22.2922 11.8143 22.2922 8.73654C22.2922 4.06624 18.9833 2.91305 14.8449 2.91305C10.4886 2.91305 7.40015 4.89126 7.23477 9.50534H3.75917Z" fill="currentColor"/>
<path d="M31.3564 4.06886H34.5551V6.26019C36.2233 3.2177 40.3368 0.601439 45.4229 0.601439V4.06886C39.1569 4.06886 34.832 7.33886 34.832 14.0305V29.3332H31.3564V4.06886Z" fill="currentColor"/>
<path d="M61.7983 0.593592V4.07017H56.006V22.9331C56.006 25.1859 56.3381 26.5051 58.8188 26.6686C59.8124 26.6686 60.8047 26.6149 61.7983 26.5051V29.4718C60.7495 29.4718 59.756 29.5816 58.7086 29.5816C54.0766 29.5816 52.4766 28.0427 52.5317 23.2077V4.07017H47.5664V0.593592H61.7983Z" fill="currentColor"/>
<path d="M88.4229 29.3149H81.6463L81.6529 27.0307C80.024 28.652 77.9686 29.9163 74.1596 29.9163C66.0166 29.9163 60.8071 23.2992 60.8071 14.9993C60.8071 6.69819 66.4025 0.0810642 75.1387 0.0810642C81.0977 0.0810642 87.4989 3.20854 88.142 10.4271H80.6553C80.3731 7.98083 78.0368 6.49684 74.9786 6.49684C70.1472 6.49684 68.2952 10.7082 68.2952 14.9993C68.2952 19.2905 70.1472 23.5005 74.9786 23.5005C78.6813 23.5005 81.137 21.776 81.5794 19.1702H76.3463V13.6357H88.4229V29.3149Z" fill="currentColor"/>
<path d="M128.667 18.6537H135.187L132.008 8.62802H131.927L128.667 18.6537ZM128.104 0.607973H135.712L146.54 29.3201H138.73L136.958 24.187H126.936L125.123 29.3201H117.434L128.104 0.607973Z" fill="currentColor"/>
<path d="M105.973 13.6043H99.4589V7.24472H105.649C107.742 7.24472 109.433 8.15864 109.433 10.2846C109.433 12.489 108.227 13.6043 105.973 13.6043ZM116.338 22.822C116.137 20.0946 115.251 16.7265 111.891 15.9643V15.8845C115.251 14.7222 116.66 11.7477 116.66 8.6594C116.66 2.88429 111.89 0.550447 106.858 0.550447H92.0667V29.3358H99.4589V18.9597H105.367C108.91 18.9597 109.354 21.9028 109.555 24.7897C109.676 25.6317 109.756 27.997 110.399 29.3358H115.896L116.799 26.5548C116.591 25.1048 116.406 23.511 116.338 22.822Z" fill="currentColor"/>
<path d="M148.435 0.687727H156.124L166.107 18.3321H166.187V0.687727H173.231V29.3201H165.544L155.559 11.4744H155.479V29.3201H148.435V0.687727Z" fill="currentColor"/>
<path d="M177.068 0.601439H184.556V29.3201H177.068V0.601439Z" fill="currentColor"/>
<path d="M213 7.10351H204.427V29.3201H196.937V7.10351H188.364V0.601439H213V7.10351Z" fill="currentColor"/>
<path d="M3.69611 3.89758H0V0.550447H3.69611V3.89758Z" fill="currentColor"/>
<path d="M45.3612 29.3358H41.3291V25.9887H45.3612V29.3358Z" fill="currentColor"/>
</svg>
